<svg
	xmlns="http://www.w3.org/2000/svg"
	viewBox="0 0 640 320"
>
	<title>S4</title>
	<g fill="#CC3300">
		<path d="M600,310H40c-16.5,0-30-13.5-30-30V40c0-16.5,13.5-30,30-30h560c16.5,0,30,13.5,30,30v240 C630,296.5,616.5,310,600,310z"/>
	</g>
	<g fill="#3399FF">
		<path d="M163.2,10H40c-16.5,0-30,13.5-30,30v215.1L163.2,10z"/>
		<polygon points="106.2,310 348.4,310 535.8,10 293.6,10"/>
		<path d="M630,68.1L478.8,310H600c16.5,0,30-13.5,30-30V68.1z"/>
	</g>
	<g fill="#000000">
		<polygon points="491.1,10 437,10 249.6,310 303.6,310"/>
		<polygon points="118.4,10 64.4,10 10,97 10,183.5"/>
		<polygon points="523.5,310 577.5,310 630,226 630,139.5"/>
		<polygon points="150.8,310 204.8,310 392.3,10 338.3,10"/>
	</g>
	<g fill="#FFFFFF">
		<path d="M449.3,25.6h6.5c2.2,0,4,1.8,4,4v175.4c0,2.2,1.8,4,4,4h36.5c2.2,0,4,1.8,4,4v8.4c0,2.2-1.8,4-4,4h-36.5
			c-2.2,0-4,1.8-4,4v37.3c0,3.6,0.7,7.1,3.3,9.7c2.6,2.6,7.9,3.5,13.4,3.5H496c2.2,0,4,1.8,4,4v6.5c0,2.2-1.8,4-4,4H386.4
			c-2.2,0-4-1.8-4-4v-6.3c0-2.2,1.8-4,4-4h22.9c6.7,0,10.7-0.4,13.8-3.3c3.2-2.8,3.8-8,3.8-13.4v-33.8c0-2.2-1.8-4-4-4h-85.8
			c-2.2,0-4-1.8-4-4v-13.3c0-0.8,0.3-1.7,0.8-2.4L446,27.3C446.7,26.2,448,25.6,449.3,25.6z M419.5,92.1l-68.8,110.6
			c-1.9,2.7,0,6.4,3.3,6.4h68.8c2.2,0,4-1.8,4-4V94.5C426.8,90.5,421.8,88.9,419.5,92.1z"/>
		<path d="M289.6,29.3v81.5c0,2.1-1.7,3.7-3.7,3.7h-0.1c-1.8,0-3.4-1.3-3.6-3.2c-2.3-15.6-6.3-28.1-11.8-37.6
			c-5.9-10.1-14.3-18.1-25.1-24.1c-10.9-5.9-22.1-8.9-33.8-8.9c-13.2,0-24,4-32.6,12c-8.6,8-12.9,17.2-12.9,27.4
			c0,7.8,2.7,15,8.2,21.4c7.8,9.5,26.5,22.1,56,37.9c24,12.9,40.4,22.8,49.2,29.7s15.6,15,20.3,24.4c4.7,9.4,7.1,19.2,7.1,29.4
			c0,19.5-7.6,36.3-22.7,50.4s-34.6,21.2-58.3,21.2c-7.5,0-14.5-0.6-21.1-1.7c-3.9-0.6-12-2.9-24.4-6.9c-12.3-4-20.1-6-23.4-6
			c-3.2,0-5.7,0.9-7.5,2.8c-1.5,1.6-2.7,4.5-3.6,8.8c-0.3,1.7-1.9,2.9-3.6,2.9h-0.2c-2.1,0-3.7-1.7-3.7-3.7v-80.6
			c0-2.1,1.7-3.7,3.7-3.7h0.2c1.8,0,3.3,1.3,3.6,3c3.2,17,7.5,29.8,12.7,38.4c5.6,9.2,14.1,16.8,25.5,22.9s24,9.1,37.7,9.1
			c15.8,0,28.3-4.2,37.5-12.5c9.2-8.3,13.8-18.2,13.8-29.6c0-6.3-1.7-12.7-5.2-19.2s-8.9-12.5-16.2-18c-4.9-3.8-18.4-11.9-40.4-24.2
			s-37.7-22.2-47-29.5s-16.3-15.4-21.2-24.3c-4.8-8.9-7.2-18.6-7.2-29.2c0-18.5,7.1-34.4,21.2-47.7c14.2-13.3,32.2-20,54.1-20
			c13.7,0,28.1,3.4,43.4,10.1c7.1,3.2,12.1,4.7,15,4.7c3.3,0,6-1,8.1-2.9c1.7-1.6,3.2-4.6,4.4-9c0.4-1.6,1.9-2.8,3.6-2.8h0.4
			C288,25.6,289.6,27.3,289.6,29.3z"/>
	</g>
</svg>
