<svg xmlns="http://www.w3.org/2000/svg"
	viewBox="0 0 24 24"
	stroke-width="1.5"
	stroke="currentColor"
	fill="none"
	stroke-linecap="round"
	stroke-linejoin="round"
>
	<title>Svelte</title>
	<path d="M 5.294 19.535 C 6.4 21.101 8.387 21.824 10.271 21.346 C 10.697 21.226 11.104 21.048 11.47 20.837 L 17.299 17.207 C 18.267 16.613 18.933 15.646 19.129 14.544 C 19.32 13.433 19.06 12.298 18.38 11.377 C 17.274 9.812 15.297 9.084 13.403 9.568 C 12.988 9.677 12.576 9.85 12.214 10.085 L 9.988 11.474 C 9.885 11.536 9.762 11.58 9.625 11.618 C 9.063 11.766 8.451 11.56 8.119 11.076 C 7.927 10.812 7.849 10.448 7.908 10.123 C 7.967 9.788 8.158 9.519 8.451 9.328 L 14.294 5.654 C 14.401 5.592 14.524 5.549 14.651 5.511 C 15.224 5.362 15.821 5.568 16.164 6.051 C 16.334 6.296 16.417 6.608 16.398 6.909 L 16.378 7.115 L 16.589 7.178 C 17.115 7.332 17.619 7.544 18.096 7.805 C 18.369 7.955 18.634 8.122 18.889 8.303 L 19.193 8.509 L 19.301 8.169 C 19.706 6.904 19.486 5.525 18.704 4.448 C 17.592 2.891 15.61 2.168 13.727 2.646 C 13.295 2.771 12.899 2.934 12.532 3.158 L 6.714 6.799 C 5.734 7.393 5.065 8.361 4.859 9.463 C 4.653 10.578 4.918 11.723 5.593 12.642 C 6.977 14.596 9.674 15.171 11.759 13.955 L 13.966 12.585 C 14.074 12.517 14.206 12.47 14.334 12.427 C 14.906 12.283 15.498 12.494 15.845 12.969 C 16.036 13.241 16.12 13.591 16.056 13.931 C 15.987 14.257 15.796 14.534 15.503 14.717 L 9.674 18.356 C 9.566 18.419 9.444 18.461 9.317 18.501 C 8.745 18.649 8.148 18.419 7.805 17.936 C 7.633 17.69 7.551 17.37 7.569 17.087 L 7.594 16.881 L 7.384 16.809 C 6.562 16.565 5.788 16.196 5.098 15.684 L 4.786 15.478 L 4.678 15.814 L 4.565 16.354 C 4.37 17.48 4.614 18.615 5.294 19.535 Z" data-bx-origin="0.5 0.497685"></path>
</svg>