<svg
	xmlns="http://www.w3.org/2000/svg"
	viewBox="0 0 128 128"
>
	<title>S4</title>
	<path fill="#CC3300" d="M128,128H0V0h128V128z"/>
	<polygon fill="#3399FF" points="128,0 52.7,0 0,84.4 0,128 76.1,128 128,44.9 "/>
	<path d="M94.8,0l-80,128H0v-13.1L71.8,0H94.8z M128,0h-14.1L34,128h23l71-113.6V0z"/>
	<path fill="#ffffff" d="M104.3,22.1h2c0.7,0,1.2,0.6,1.2,1.2V78c0,0.7,0.6,1.2,1.2,1.2h11.4c0.7,0,1.2,0.6,1.2,1.2v2.6
		c0,0.7-0.6,1.2-1.2,1.2h-11.4c-0.7,0-1.2,0.6-1.2,1.2v11.6c0,1.1,0.2,2.2,1,3c0.8,0.8,2.5,1.1,4.2,1.1h6.1c0.7,0,1.2,0.6,1.2,1.2v2
		c0,0.7-0.6,1.2-1.2,1.2H84.7c-0.7,0-1.2-0.6-1.2-1.2v-2c0-0.7,0.6-1.2,1.2-1.2h7.1c2.1,0,3.3-0.1,4.3-1c1-0.9,1.2-2.5,1.2-4.2V85.7
		c0-0.7-0.6-1.2-1.2-1.2H69.3c-0.7,0-1.2-0.6-1.2-1.2V79c0-0.2,0.1-0.5,0.2-0.7l34.9-55.6C103.5,22.3,103.9,22.1,104.3,22.1z
		M95,42.9L73.6,77.3c-0.6,0.8,0,2,1,2H96c0.7,0,1.2-0.6,1.2-1.2V43.6C97.3,42.4,95.7,41.9,95,42.9z M54.5,23.3v25.4
		c0,0.7-0.5,1.2-1.2,1.2h0c-0.6,0-1.1-0.4-1.1-1c-0.7-4.9-2-8.8-3.7-11.7c-1.8-3.1-4.5-5.6-7.8-7.5c-3.4-1.8-6.9-2.8-10.5-2.8
		c-4.1,0-7.5,1.2-10.2,3.7c-2.7,2.5-4,5.4-4,8.5c0,2.4,0.8,4.7,2.6,6.7c2.4,3,8.3,6.9,17.4,11.8c7.5,4,12.6,7.1,15.3,9.3
		c2.7,2.1,4.9,4.7,6.3,7.6c1.5,2.9,2.2,6,2.2,9.2c0,6.1-2.4,11.3-7.1,15.7s-10.8,6.6-18.2,6.6c-2.3,0-4.5-0.2-6.6-0.5
		c-1.2-0.2-3.7-0.9-7.6-2.1c-3.8-1.2-6.3-1.9-7.3-1.9c-1,0-1.8,0.3-2.3,0.9c-0.5,0.5-0.8,1.4-1.1,2.7c-0.1,0.5-0.6,0.9-1.1,0.9H8.6
		c-0.7,0-1.2-0.5-1.2-1.2V79.6c0-0.7,0.5-1.2,1.2-1.2h0.1c0.6,0,1,0.4,1.1,0.9c1,5.3,2.3,9.3,4,12c1.7,2.9,4.4,5.2,7.9,7.1
		s7.5,2.8,11.7,2.8c4.9,0,8.8-1.3,11.7-3.9c2.9-2.6,4.3-5.7,4.3-9.2c0-2-0.5-4-1.6-6c-1.1-2-2.8-3.9-5-5.6c-1.5-1.2-5.7-3.7-12.6-7.5
		s-11.7-6.9-14.6-9.2c-2.9-2.3-5.1-4.8-6.6-7.6c-1.5-2.8-2.2-5.8-2.2-9.1c0-5.8,2.2-10.7,6.6-14.9c4.4-4.1,10-6.2,16.9-6.2
		c4.3,0,8.8,1.1,13.5,3.1c2.2,1,3.8,1.5,4.7,1.5c1,0,1.9-0.3,2.5-0.9c0.5-0.5,1-1.4,1.4-2.8c0.1-0.5,0.6-0.9,1.1-0.9h0.1
		C54,22.1,54.5,22.7,54.5,23.3z"/>
</svg>
